<svg width="21" height="22" viewBox="0 0 21 22" fill="none" xmlns="http://www.w3.org/2000/svg">
<path fill-rule="evenodd" clip-rule="evenodd" d="M10.5 4.97884V17.0195C10.5002 17.4692 10.3063 17.8947 9.97307 18.1761C9.63982 18.4575 9.2032 18.5644 8.78615 18.4667L5.26652 17.643C4.62238 17.4925 4.16406 16.8912 4.16406 16.1966V5.80252C4.16406 5.10769 4.62283 4.50623 5.26731 4.35608L8.78695 3.5324C9.20376 3.43485 9.64011 3.54173 9.97319 3.82296C10.3063 4.1042 10.5 4.52937 10.5 4.97884Z" stroke="#008E6C" stroke-width="1.5" stroke-linecap="round" stroke-linejoin="round"/>
<path d="M8.12256 11.85V10.1826" stroke="#008E6C" stroke-width="1.5" stroke-linecap="round" stroke-linejoin="round"/>
<path d="M16.835 7.66515V5.96277C16.8351 5.52052 16.6683 5.09635 16.3712 4.78363C16.0741 4.47092 15.6711 4.29529 15.251 4.29541H12.875" stroke="#008E6C" stroke-width="1.5" stroke-linecap="round" stroke-linejoin="round"/>
<path d="M16.835 14.3345V16.0018C16.8351 16.4441 16.6683 16.8683 16.3712 17.181C16.0741 17.4937 15.6711 17.6693 15.251 17.6692H12.875" stroke="#008E6C" stroke-width="1.5" stroke-linecap="round" stroke-linejoin="round"/>
<path d="M12.875 10.9998H16.835" stroke="#008E6C" stroke-width="1.5" stroke-linecap="round" stroke-linejoin="round"/>
<path d="M15.2539 12.6672L16.8379 10.9999L15.2539 9.33252" stroke="#008E6C" stroke-width="1.5" stroke-linecap="round" stroke-linejoin="round"/>
</svg>
