<svg width="16" height="16" viewBox="0 0 16 16" fill="none" xmlns="http://www.w3.org/2000/svg">
<path fill-rule="evenodd" clip-rule="evenodd" d="M13.3327 8.68044C13.3327 11.1969 10.2361 13.0663 8.75943 13.8168C8.28298 14.0604 7.71866 14.0609 7.24178 13.8182C5.7661 13.0683 2.66602 11.1944 2.66602 8.68044V5.04609C2.67092 4.70552 2.92883 4.422 3.26742 4.38497C4.68203 4.27747 6.03825 3.77592 7.18242 2.93713C7.66726 2.5763 8.33141 2.5763 8.81626 2.93713C9.96042 3.77592 11.3166 4.27747 12.7313 4.38497C13.0698 4.42198 13.3278 4.70552 13.3327 5.04609V8.68044Z" stroke="currentColor" stroke-width="1.5" stroke-linecap="round" stroke-linejoin="round"/>
<path d="M9.06693 7.6665L7.7343 8.99984L6.93359 8.19984" stroke="currentColor" stroke-width="1.5" stroke-linecap="round" stroke-linejoin="round"/>
</svg>
