<svg width="33" height="38" viewBox="0 0 33 38" fill="none" xmlns="http://www.w3.org/2000/svg">
<path fill-rule="evenodd" clip-rule="evenodd" d="M17.987 37.6497C21.5702 35.0478 32.916 25.997 32.916 15.7086C32.916 11.5424 31.2303 7.54687 28.2297 4.60094C25.2291 1.65501 21.1595 0 16.916 0C12.6726 0 8.60289 1.65501 5.60231 4.60094C2.60172 7.54687 0.916016 11.5424 0.916016 15.7086C0.916016 25.997 12.2618 35.0478 15.8451 37.6497C16.4885 38.1169 17.3436 38.1169 17.987 37.6497ZM22.2493 15.7093C22.2493 18.6012 19.8615 20.9455 16.916 20.9455C13.9705 20.9455 11.5827 18.6012 11.5827 15.7093C11.5827 12.8174 13.9705 10.4731 16.916 10.4731C19.8615 10.4731 22.2493 12.8174 22.2493 15.7093Z" fill="#129676"/>
</svg>
