<svg width="16" height="16" viewBox="0 0 16 16" fill="none" xmlns="http://www.w3.org/2000/svg">
<path d="M11.8359 15.344C10.9991 16.1856 10.0758 16.0544 9.1958 15.6576C8.26017 15.2528 7.40483 15.2272 6.4167 15.6576C5.18618 16.208 4.53309 16.048 3.792 15.344C-0.39208 10.88 0.225497 4.08 4.98084 3.824C6.13416 3.888 6.94164 4.4848 7.62098 4.5344C8.63071 4.3216 9.59722 3.712 10.678 3.792C11.9764 3.9008 12.9476 4.432 13.596 5.3872C10.925 7.0512 11.558 10.6992 14.0114 11.7232C13.5204 13.0592 12.8905 14.3792 11.8344 15.3552L11.8359 15.344ZM7.52834 3.776C7.40328 1.792 8.95494 0.16 10.7397 0C10.9852 2.288 8.73261 4 7.52834 3.776Z" fill="currentColor"/>
</svg>
