<svg width="12" height="10" viewBox="0 0 12 10" fill="none" xmlns="http://www.w3.org/2000/svg">
<path fill-rule="evenodd" clip-rule="evenodd" d="M5.48664 0.75949C5.11792 0.75949 4.80427 0.9924 4.71623 1.30632H7.67668C7.58868 0.9924 7.27502 0.75949 6.9063 0.75949H5.48664ZM8.51312 1.30632H9.60267C10.7582 1.30632 11.6992 2.17214 11.6992 3.23542C11.6992 3.23542 11.6662 3.68555 11.6552 4.3124C11.6541 4.362 11.6277 4.4106 11.5842 4.44C11.3196 4.6177 11.0774 4.76455 11.0554 4.77465C10.1419 5.3316 9.08045 5.7235 7.94965 5.91845C7.87589 5.9316 7.80329 5.8967 7.76584 5.83695C7.44887 5.3377 6.8568 5.01265 6.19647 5.01265C5.54054 5.01265 4.94294 5.33415 4.61663 5.8339C4.57866 5.89265 4.50712 5.92655 4.43394 5.9139C3.31248 5.71845 2.25099 5.32705 1.34304 4.7797L0.814779 4.44555C0.770757 4.42025 0.743241 4.37465 0.743241 4.32405C0.726735 4.0658 0.699219 3.23542 0.699219 3.23542C0.699219 2.17214 1.64019 1.30632 2.79577 1.30632H3.87981C3.98436 0.57215 4.6612 0 5.48664 0H6.9063C7.73174 0 8.40857 0.57215 8.51312 1.30632ZM11.5121 5.4076L11.4901 5.41775C10.3786 6.0962 9.0414 6.54685 7.63818 6.7342C7.44007 6.7595 7.24196 6.64305 7.18696 6.4608C7.06591 6.0456 6.67519 5.77215 6.20747 5.77215H6.20197H6.19097C5.72325 5.77215 5.33253 6.0456 5.21147 6.4608C5.15647 6.64305 4.95835 6.7595 4.76025 6.7342C3.35705 6.54685 2.01988 6.0962 0.908323 5.41775C0.902823 5.4127 0.847796 5.3823 0.803774 5.4076C0.754246 5.43295 0.754246 5.4937 0.754246 5.4937L0.792768 8.07595C0.792768 9.13925 1.72824 10 2.88381 10H9.50912C10.6647 10 11.6002 9.13925 11.6002 8.07595L11.6442 5.4937C11.6442 5.4937 11.6442 5.43295 11.5947 5.4076C11.5672 5.39245 11.5342 5.3975 11.5121 5.4076ZM6.60919 7.52915C6.60919 7.7418 6.42758 7.90885 6.19647 7.90885C5.97086 7.90885 5.78375 7.7418 5.78375 7.52915V6.87595C5.78375 6.66835 5.97086 6.4962 6.19647 6.4962C6.42758 6.4962 6.60919 6.66835 6.60919 6.87595V7.52915Z" fill="currentColor"/>
</svg>
