<svg width="16" height="17" viewBox="0 0 16 17" fill="none" xmlns="http://www.w3.org/2000/svg">
<g opacity="0.5">
<path d="M2.39705 3.05379L2.46967 2.96967C2.73594 2.7034 3.1526 2.6792 3.44621 2.89705L3.53033 2.96967L8 7.439L12.4697 2.96967C12.7626 2.67678 13.2374 2.67678 13.5303 2.96967C13.8232 3.26256 13.8232 3.73744 13.5303 4.03033L9.061 8.5L13.5303 12.9697C13.7966 13.2359 13.8208 13.6526 13.6029 13.9462L13.5303 14.0303C13.2641 14.2966 12.8474 14.3208 12.5538 14.1029L12.4697 14.0303L8 9.561L3.53033 14.0303C3.23744 14.3232 2.76256 14.3232 2.46967 14.0303C2.17678 13.7374 2.17678 13.2626 2.46967 12.9697L6.939 8.5L2.46967 4.03033C2.2034 3.76406 2.1792 3.3474 2.39705 3.05379L2.46967 2.96967L2.39705 3.05379Z" fill="currentColor"/>
</g>
</svg>