<svg width="20" height="21" viewBox="0 0 20 21" fill="none" xmlns="http://www.w3.org/2000/svg"><path clip-rule="evenodd" d="M8.801 10.418a.783.783 0 0 1-.78.784h-6.24A.782.782 0 0 1 1 10.418V1.784A.783.783 0 0 1 1.781 1l6.241.01c.432.002.78.353.78.785v8.623ZM19 5.631a.775.775 0 0 1-.78.77h-6.24a.775.775 0 0 1-.78-.77v-3.85a.775.775 0 0 1 .778-.77L18.218 1a.776.776 0 0 1 .783.77V5.63ZM8.801 18.232a.777.777 0 0 1-.781.772l-6.241-.01A.775.775 0 0 1 1 18.221v-3.848a.775.775 0 0 1 .78-.771h6.241a.776.776 0 0 1 .78.77v3.859ZM11.98 19.004a.783.783 0 0 1-.78-.785V9.587a.783.783 0 0 1 .78-.785h6.24a.782.782 0 0 1 .78.785v8.622a.783.783 0 0 1-.779.784l-6.24.01Z" stroke="#BBC0D3" stroke-width="2" stroke-linecap="round" stroke-linejoin="round"/></svg>
