<svg width="16" height="16" viewBox="0 0 16 16" fill="none" xmlns="http://www.w3.org/2000/svg">
<path d="M10 10L8 8" stroke="#008E6C" stroke-linecap="round" stroke-linejoin="round"/>
<path d="M8 8L6 10" stroke="#008E6C" stroke-linecap="round" stroke-linejoin="round"/>
<path d="M8 14V8" stroke="#008E6C" stroke-linecap="round" stroke-linejoin="round"/>
<path d="M5.2 13.166C5.47614 13.166 5.7 12.9422 5.7 12.666C5.7 12.3899 5.47614 12.166 5.2 12.166V13.166ZM1 9.99935H0.5H1ZM3.8 7.33268V7.83268C3.94549 7.83268 4.08377 7.76931 4.17875 7.6591C4.27373 7.54889 4.316 7.40278 4.29452 7.25888L3.8 7.33268ZM3.793 7.28578L4.28752 7.21198L4.28747 7.21161L3.793 7.28578ZM8 2.66602L8 2.16602H8L8 2.66602ZM12.207 7.28578L11.7125 7.21161L11.7125 7.21198L12.207 7.28578ZM12.2 7.33268L11.7055 7.25888C11.684 7.40278 11.7263 7.54889 11.8213 7.6591C11.9162 7.76931 12.0545 7.83268 12.2 7.83268V7.33268ZM10.8 12.166C10.5239 12.166 10.3 12.3899 10.3 12.666C10.3 12.9422 10.5239 13.166 10.8 13.166V12.166ZM5.2 12.166H3.8V13.166H5.2V12.166ZM3.8 12.166C2.50648 12.166 1.5 11.1733 1.5 9.99935H0.5C0.5 11.771 2.00073 13.166 3.8 13.166V12.166ZM1.5 9.99935C1.5 8.82544 2.50648 7.83268 3.8 7.83268V6.83268C2.00073 6.83268 0.5 8.22774 0.5 9.99935H1.5ZM4.29452 7.25888L4.28752 7.21198L3.29848 7.35957L3.30548 7.40648L4.29452 7.25888ZM4.28747 7.21161C4.13608 6.20238 4.45087 5.17605 5.15922 4.39821L4.41985 3.7249C3.51384 4.7198 3.10146 6.04617 3.29853 7.35995L4.28747 7.21161ZM5.15922 4.39821C5.86871 3.6191 6.90435 3.16602 8 3.16602L8 2.16602C6.63173 2.16602 5.32471 2.73126 4.41985 3.7249L5.15922 4.39821ZM8 3.16602C9.09565 3.16602 10.1313 3.6191 10.8408 4.39821L11.5801 3.7249C10.6753 2.73126 9.36827 2.16602 8 2.16602L8 3.16602ZM10.8408 4.39821C11.5491 5.17605 11.8639 6.20238 11.7125 7.21161L12.7015 7.35995C12.8985 6.04617 12.4862 4.7198 11.5801 3.7249L10.8408 4.39821ZM11.7125 7.21198L11.7055 7.25888L12.6945 7.40648L12.7015 7.35958L11.7125 7.21198ZM12.2 7.83268C13.4935 7.83268 14.5 8.82544 14.5 9.99935H15.5C15.5 8.22774 13.9993 6.83268 12.2 6.83268V7.83268ZM14.5 9.99935C14.5 11.1733 13.4935 12.166 12.2 12.166V13.166C13.9993 13.166 15.5 11.771 15.5 9.99935H14.5ZM12.2 12.166H10.8V13.166H12.2V12.166Z" fill="#008E6C"/>
</svg>
