<svg width="16" height="16" viewBox="0 0 16 16" fill="none" xmlns="http://www.w3.org/2000/svg">
<path fill-rule="evenodd" clip-rule="evenodd" d="M8 2V2C11.314 2 14 4.686 14 8V8C14 11.314 11.314 14 8 14V14C4.686 14 2 11.314 2 8V8C2 4.686 4.686 2 8 2Z" stroke="currentColor" stroke-width="1.2" stroke-linecap="round" stroke-linejoin="round"/>
<path d="M8.0013 8.33333V5" stroke="currentColor" stroke-width="1.2" stroke-linecap="round" stroke-linejoin="round"/>
<path d="M8.00064 10.6667C7.90864 10.6667 7.83397 10.7413 7.83464 10.8333C7.83464 10.9253 7.9093 11 8.00131 11C8.09331 11 8.16797 10.9253 8.16797 10.8333C8.16797 10.7413 8.09331 10.6667 8.00064 10.6667" stroke="currentColor" stroke-width="1.2" stroke-linecap="round" stroke-linejoin="round"/>
</svg>
