<svg width="20" height="20" viewBox="0 0 20 20" fill="none" xmlns="http://www.w3.org/2000/svg">
<path d="M12.1322 11.2988C11.5992 12.1974 10.564 12.6703 9.5358 12.4849C8.50759 12.2994 7.70283 11.4947 7.51739 10.4665C7.33195 9.43827 7.80486 8.40308 8.7035 7.87012" stroke="currentColor" stroke-width="1.5" stroke-linecap="round" stroke-linejoin="round"/>
<path d="M14.9973 14.1635C13.56 15.2537 11.8042 15.8413 10.0002 15.8358C7.01093 15.889 4.24897 14.2461 2.86888 11.594C2.37313 10.5892 2.37313 9.41085 2.86888 8.406C3.55909 7.03152 4.65934 5.90547 6.01746 5.18359" stroke="currentColor" stroke-width="1.5" stroke-linecap="round" stroke-linejoin="round"/>
<path d="M17.0226 11.7789C17.0561 11.7155 17.0996 11.6587 17.1312 11.5941C17.627 10.5892 17.627 9.41095 17.1312 8.4061C15.7511 5.75395 12.9892 4.11111 9.99989 4.16434C9.81249 4.16434 9.63032 4.18935 9.44531 4.20154" stroke="currentColor" stroke-width="1.5" stroke-linecap="round" stroke-linejoin="round"/>
<path d="M17.5036 16.6696L3.33105 2.49707" stroke="currentColor" stroke-width="1.5" stroke-linecap="round" stroke-linejoin="round"/>
</svg>
