<svg width="16" height="16" viewBox="0 0 10 16" fill="none" xmlns="http://www.w3.org/2000/svg">
<path d="M8.99068 0.00332907L6.91584 0C4.58483 0 3.07843 1.54552 3.07843 3.93762V5.75313H0.992265C0.811995 5.75313 0.666016 5.89927 0.666016 6.07954V8.71001C0.666016 8.89028 0.812162 9.03625 0.992265 9.03625H3.07843V15.6738C3.07843 15.854 3.2244 16 3.40467 16H6.12652C6.30679 16 6.45277 15.8539 6.45277 15.6738V9.03625H8.89198C9.07225 9.03625 9.21823 8.89028 9.21823 8.71001L9.21922 6.07954C9.21922 5.99299 9.18477 5.91009 9.12368 5.84884C9.06259 5.78758 8.97937 5.75313 8.89281 5.75313H6.45277V4.2141C6.45277 3.47438 6.62904 3.09886 7.59264 3.09886L8.99035 3.09836C9.17045 3.09836 9.31643 2.95222 9.31643 2.77211V0.329578C9.31643 0.149642 9.17062 0.00366197 8.99068 0.00332907Z" fill="currentColor"/>
</svg>
