<svg width="16" height="16" viewBox="0 0 16 16" fill="none" xmlns="http://www.w3.org/2000/svg">
<path d="M7.58906 4.38311C6.47024 4.27882 5.91083 4.74815 5.91083 5.79111V5.93334H7.58906V7.41245H5.91083V13.0444H4.37483V7.41245H3.29395V5.93334H4.37483V5.79111C4.37483 4.81452 4.64506 4.07497 5.1855 3.57245C5.73543 3.06045 6.53661 2.83763 7.58906 2.904V4.38311Z" fill="currentColor"/>
<path d="M12.7058 7.41245H10.9423V10.8258C10.9423 11.1197 11.0086 11.333 11.1414 11.4658C11.2741 11.589 11.4685 11.6602 11.7245 11.6791C11.99 11.6886 12.3171 11.6839 12.7058 11.6649V13.0444C11.5301 13.1867 10.6863 13.0871 10.1743 12.7458C9.66228 12.395 9.40628 11.755 9.40628 10.8258V7.41245H8.09783V5.93334H9.40628V4.39734L10.9423 3.94222V5.93334H12.7058V7.41245Z" fill="currentColor"/>
</svg>
