<svg width="16" height="16" viewBox="0 0 16 16" fill="none" xmlns="http://www.w3.org/2000/svg">
<path d="M12 3.33333H14" stroke="currentColor" stroke-width="1.2" stroke-linecap="round" stroke-linejoin="round"/>
<path d="M2 3.33333H9.33333" stroke="currentColor" stroke-width="1.2" stroke-linecap="round" stroke-linejoin="round"/>
<path d="M6.66699 8.00008H14.0003" stroke="currentColor" stroke-width="1.2" stroke-linecap="round" stroke-linejoin="round"/>
<path d="M2 8.00008H4" stroke="currentColor" stroke-width="1.2" stroke-linecap="round" stroke-linejoin="round"/>
<path d="M12 12.6666H14" stroke="currentColor" stroke-width="1.2" stroke-linecap="round" stroke-linejoin="round"/>
<path d="M2 12.6666H9.33333" stroke="currentColor" stroke-width="1.2" stroke-linecap="round" stroke-linejoin="round"/>
<path d="M11.6092 2.39052C12.1299 2.91122 12.1299 3.75544 11.6092 4.27614C11.0885 4.79684 10.2442 4.79684 9.72353 4.27614C9.20283 3.75545 9.20283 2.91122 9.72353 2.39052C10.2442 1.86983 11.0885 1.86983 11.6092 2.39052" stroke="currentColor" stroke-width="1.2" stroke-linecap="round" stroke-linejoin="round"/>
<path d="M6.27614 7.05727C6.79684 7.57797 6.79684 8.42219 6.27614 8.94289C5.75544 9.46359 4.91122 9.46359 4.39052 8.94289C3.86983 8.42219 3.86983 7.57797 4.39052 7.05727C4.91122 6.53657 5.75544 6.53657 6.27614 7.05727" stroke="currentColor" stroke-width="1.2" stroke-linecap="round" stroke-linejoin="round"/>
<path d="M11.6092 11.7238C12.1299 12.2445 12.1299 13.0887 11.6092 13.6094C11.0885 14.1301 10.2442 14.1301 9.72353 13.6094C9.20283 13.0887 9.20283 12.2445 9.72353 11.7238C10.2442 11.2031 11.0885 11.2031 11.6092 11.7238" stroke="currentColor" stroke-width="1.2" stroke-linecap="round" stroke-linejoin="round"/>
</svg>
