<svg width="9" height="10" viewBox="0 0 9 10" fill="none" xmlns="http://www.w3.org/2000/svg">
<path fill-rule="evenodd" clip-rule="evenodd" d="M0.916016 4.16211C0.916016 6.0751 2.54248 8.10428 3.72114 9.32361C4.38475 10.0101 5.44728 10.0101 6.1109 9.32361C7.28955 8.10428 8.91602 6.07511 8.91602 4.16211C8.91602 1.95297 7.12516 0.162109 4.91602 0.162109C2.70687 0.162109 0.916016 1.95297 0.916016 4.16211ZM3.20201 4.16239C3.20201 5.10925 3.96944 5.87667 4.91629 5.87667C5.86315 5.87667 6.63058 5.10925 6.63058 4.16239C6.63058 3.21553 5.86315 2.4481 4.91629 2.4481C3.96944 2.4481 3.20201 3.21553 3.20201 4.16239Z" fill="currentColor"/>
</svg>
