<svg width="16" height="16" viewBox="0 0 16 16" fill="none" xmlns="http://www.w3.org/2000/svg">
<path d="M11.9998 10V10.6667" stroke="currentColor" stroke-width="1.5" stroke-linecap="round" stroke-linejoin="round"/>
<path d="M11.9998 13.333V13.9997" stroke="currentColor" stroke-width="1.5" stroke-linecap="round" stroke-linejoin="round"/>
<path d="M10.2667 10.9997L10.8667 11.333" stroke="currentColor" stroke-width="1.5" stroke-linecap="round" stroke-linejoin="round"/>
<path d="M13.1334 12.6667L13.7334 13" stroke="currentColor" stroke-width="1.5" stroke-linecap="round" stroke-linejoin="round"/>
<path d="M10.2667 13L10.8667 12.6667" stroke="currentColor" stroke-width="1.5" stroke-linecap="round" stroke-linejoin="round"/>
<path d="M13.1334 11.333L13.7334 10.9997" stroke="currentColor" stroke-width="1.5" stroke-linecap="round" stroke-linejoin="round"/>
<path d="M12.9332 11.067C13.4665 11.6003 13.4665 12.4003 12.9332 12.9337C12.3998 13.467 11.5998 13.467 11.0665 12.9337C10.5332 12.4003 10.5332 11.6003 11.0665 11.067C11.5998 10.5337 12.3998 10.5337 12.9332 11.067" stroke="currentColor" stroke-width="1.5" stroke-linecap="round" stroke-linejoin="round"/>
<path d="M9.99999 3.46699C11.1333 4.60033 11.1333 6.40032 9.99999 7.46699C8.86666 8.53366 7.06666 8.60032 5.99999 7.46699C4.93333 6.33366 4.86666 4.53366 5.99999 3.46699C7.13333 2.40033 8.86666 2.40033 9.99999 3.46699" stroke="currentColor" stroke-width="1.5" stroke-linecap="round" stroke-linejoin="round"/>
<path d="M2.6665 13.333C2.6665 11.6663 3.99984 10.333 5.6665 10.333H7.39984" stroke="currentColor" stroke-width="1.5" stroke-linecap="round" stroke-linejoin="round"/>
</svg>
