<svg width="16" height="16" viewBox="0 0 16 16" fill="none" xmlns="http://www.w3.org/2000/svg">
<path d="M3.724 5.14746H0.511971C0.369416 5.14746 0.253906 5.26302 0.253906 5.40553V15.7244C0.253906 15.8669 0.369416 15.9825 0.511971 15.9825H3.724C3.86655 15.9825 3.98206 15.8669 3.98206 15.7244V5.40553C3.98206 5.26302 3.86655 5.14746 3.724 5.14746Z" fill="currentColor"/>
<path d="M2.11954 0.0175781C0.950813 0.0175781 0 0.967359 0 2.13479C0 3.30274 0.950813 4.25288 2.11954 4.25288C3.28733 4.25288 4.23737 3.30269 4.23737 2.13479C4.23742 0.967359 3.28733 0.0175781 2.11954 0.0175781Z" fill="currentColor"/>
<path d="M11.8948 4.89062C10.6048 4.89062 9.6511 5.44521 9.07268 6.07535V5.40515C9.07268 5.26265 8.95717 5.14709 8.81461 5.14709H5.73853C5.59598 5.14709 5.48047 5.26265 5.48047 5.40515V15.724C5.48047 15.8666 5.59598 15.9821 5.73853 15.9821H8.94354C9.0861 15.9821 9.20161 15.8666 9.20161 15.724V10.6186C9.20161 8.89816 9.66891 8.22791 10.8682 8.22791C12.1743 8.22791 12.2781 9.30239 12.2781 10.7071V15.7241C12.2781 15.8666 12.3936 15.9821 12.5362 15.9821H15.7424C15.8849 15.9821 16.0004 15.8666 16.0004 15.7241V10.064C16.0004 7.5058 15.5126 4.89062 11.8948 4.89062Z" fill="currentColor"/>
</svg>
