<svg width="16" height="16" viewBox="0 0 16 16" fill="none" xmlns="http://www.w3.org/2000/svg"><path clip-rule="evenodd" d="M8 8.667v0a2 2 0 0 1-2-2v0a2 2 0 0 1 2-2v0a2 2 0 0 1 2 2v0a2 2 0 0 1-2 2Z" stroke="#fff" stroke-width="1.2" stroke-linecap="round" stroke-linejoin="round"/><path clip-rule="evenodd" d="M9.201 12.884a1.676 1.676 0 0 1-2.405 0c-1.382-1.393-3.464-3.88-3.464-6.217a4.667 4.667 0 1 1 9.333 0c0 2.337-2.081 4.824-3.464 6.217Z" stroke="#fff" stroke-width="1.2" stroke-linecap="round" stroke-linejoin="round"/></svg>