<svg width="16" height="16" viewBox="0 0 16 16" fill="none" xmlns="http://www.w3.org/2000/svg">
<path d="M8.73827 6.22266V12.4449H7.4316V8.35066L5.6396 11.2004H5.47782L3.69827 8.3631V12.4449H2.3916V6.22266H3.76049L5.56494 9.09732L7.36938 6.22266H8.73827Z" fill="currentColor"/>
<path d="M13.7725 8.88411H9.84111V7.86328L11.2022 6.53255C11.6154 6.12746 11.8787 5.83579 11.9922 5.65755C12.1096 5.47526 12.1684 5.28284 12.1684 5.0803C12.1684 4.92636 12.1198 4.80888 12.0225 4.72786C11.9253 4.64685 11.7957 4.60634 11.6336 4.60634C11.3055 4.60634 10.9409 4.78458 10.5399 5.14106L9.7925 4.21745C10.388 3.69488 11.0685 3.43359 11.8342 3.43359C12.3891 3.43359 12.8266 3.5693 13.1467 3.84071C13.4667 4.10807 13.6267 4.47873 13.6267 4.95269C13.6267 5.29702 13.5315 5.62109 13.3411 5.92491C13.1507 6.22873 12.7942 6.61762 12.2717 7.09158L11.6336 7.66884H13.7725V8.88411Z" fill="currentColor"/>
</svg>
