<svg width="14" height="14" viewBox="0 0 14 14" fill="none" xmlns="http://www.w3.org/2000/svg"><path d="m13.433 4.96-8.34 8.382A2.29 2.29 0 0 1 3.495 14H.582a.59.59 0 0 1-.42-.174.58.58 0 0 1-.162-.422l.074-2.943c.013-.583.248-1.13.657-1.54L6.642 3a.27.27 0 0 1 .372 0l2.073 2.065a.783.783 0 0 0 .545.223.818.818 0 0 0 .818-.82.842.842 0 0 0-.223-.57c-.037-.05-2.011-2.016-2.011-2.016a.33.33 0 0 1 0-.46l.83-.844a1.957 1.957 0 0 1 2.776 0l1.611 1.615c.756.757.756 1.999 0 2.769Z" fill="#646A8C"/></svg>