<svg width="24" height="24" viewBox="0 0 24 24" fill="none" xmlns="http://www.w3.org/2000/svg">
<path d="M19.352 9.66924L9.8208 19.2479C9.32509 19.7303 8.6736 20 7.9938 20H4.66563C4.48153 20 4.31158 19.929 4.18412 19.8013C4.05665 19.6736 4 19.5033 4 19.3188L4.08497 15.9556C4.09914 15.2887 4.36822 14.6643 4.83558 14.1961L11.5911 7.42705C11.7043 7.31353 11.9027 7.31353 12.016 7.42705L14.3853 9.78691C14.5411 9.94167 14.7677 10.0423 15.0084 10.0423C15.5325 10.0423 15.9431 9.61673 15.9431 9.10574C15.9431 8.85037 15.8441 8.62333 15.6883 8.45303C15.6458 8.39628 13.3897 6.14989 13.3897 6.14989C13.248 6.00799 13.248 5.76673 13.3897 5.62483L14.3386 4.65987C15.2166 3.78004 16.6329 3.78004 17.511 4.65987L19.352 6.50465C20.216 7.37028 20.216 8.78935 19.352 9.66924Z" fill="#646A8C"/>
</svg>
