<svg width="30" height="26" viewBox="0 0 30 26" fill="none" xmlns="http://www.w3.org/2000/svg"><path d="M19.319 10.252a5.98 5.98 0 1 1-8.458 8.457 5.98 5.98 0 0 1 8.458-8.457" stroke="currentColor" stroke-width="1.5" stroke-linecap="round" stroke-linejoin="round"/><path clip-rule="evenodd" d="M28.5 8.5V22a3 3 0 0 1-3 3h-21a3 3 0 0 1-3-3V8.5a3 3 0 0 1 3-3h3l2.193-3.756A1.5 1.5 0 0 1 10.989 1h7.956c.526 0 1.014.276 1.285.726L22.5 5.5h3a3 3 0 0 1 3 3Z" stroke="currentColor" stroke-width="1.5" stroke-linecap="round" stroke-linejoin="round"/></svg>
