<svg width="16" height="16" viewBox="0 0 16 16" fill="none" xmlns="http://www.w3.org/2000/svg">
<path d="M7.5 8.45958C7.49875 8.46156 7.49613 8.46491 7.491 8.46951C7.4757 8.48323 7.44467 8.49976 7.39911 8.5H2.60057C2.55661 8.49984 2.52441 8.48366 2.50882 8.46967C2.50369 8.46508 2.50113 8.4615 2.5 8.45965V2.54076C2.50112 2.5389 2.50372 2.53522 2.50903 2.53046C2.52473 2.5164 2.55699 2.50022 2.60097 2.5L7.39879 2.50713C7.39892 2.50713 7.39904 2.50713 7.39917 2.50714C7.44475 2.50739 7.47575 2.52394 7.49103 2.53765C7.49615 2.54224 7.49876 2.54558 7.5 2.54756V8.45958ZM7.50099 8.45749C7.50105 8.4575 7.50093 8.45795 7.50045 8.45882L7.50099 8.45749ZM7.50098 2.54965C7.50092 2.54966 7.50068 2.54922 7.50045 2.54832L7.50098 2.54965Z" stroke="#BBC0D3" stroke-linecap="round" stroke-linejoin="round"/>
<path d="M13.5 5.42784C13.4996 5.46396 13.4884 5.48797 13.48 5.49998H9.5198C9.51134 5.48764 9.50037 5.46302 9.5 5.42814V2.57956C9.50037 2.54363 9.51144 2.5197 9.5198 2.50768L13.4797 2.50005C13.4882 2.51207 13.4995 2.53614 13.5 2.57242V5.42784Z" stroke="#BBC0D3" stroke-linecap="round" stroke-linejoin="round"/>
<path d="M7.40175 13.5L7.39957 13.5L2.59957 13.4923L2.59957 13.4923L2.59678 13.4923C2.52617 13.4926 2.5005 13.4426 2.5 13.4189V10.5733C2.50024 10.5599 2.5058 10.5433 2.52182 10.528C2.53873 10.5119 2.56548 10.4998 2.59701 10.5V10.5H2.6L7.4 10.5L7.40249 10.5C7.47333 10.4997 7.49939 10.5498 7.5 10.5738V13.4257C7.49972 13.4393 7.494 13.4563 7.47779 13.4717C7.46064 13.488 7.43359 13.5002 7.40175 13.5Z" stroke="#BBC0D3" stroke-linecap="round" stroke-linejoin="round"/>
<path d="M9.5 13.4628V13.4614V7.53859H9.5L9.5 7.53715C9.49995 7.51848 9.50653 7.5057 9.51106 7.5H13.4889C13.4935 7.5057 13.5001 7.51848 13.5 7.53715V7.53859L13.5 13.4543L13.5 13.4552C13.5 13.4749 13.4934 13.4872 13.4887 13.4929L9.51105 13.5C9.50652 13.4943 9.49995 13.4815 9.5 13.4628ZM9 13.4614V7.53859C8.99959 7.39618 9.05204 7.25944 9.14581 7.15843C9.23958 7.05743 9.36699 7.00044 9.5 7L9 13.4614Z" stroke="#BBC0D3" stroke-linecap="round" stroke-linejoin="round"/>
</svg>
