<svg width="16" height="16" viewBox="0 0 16 16" fill="none" xmlns="http://www.w3.org/2000/svg"><path d="M6.667 5.333h-2M2 12.333V3.667C2 2.747 2.746 2 3.667 2H4c.368 0 .667.298.667.667V10a.667.667 0 0 1-.667.667h-.333c-.92 0-1.667.746-1.667 1.666h0C2 13.253 2.746 14 3.667 14h9c.736 0 1.333-.597 1.333-1.333V7.333" stroke="#646A8C" stroke-width="1.2" stroke-linecap="round" stroke-linejoin="round"/><path clip-rule="evenodd" d="m9.833 8.456-1.452.207a.332.332 0 0 1-.378-.374l.208-1.456c.04-.285.173-.55.377-.754l3.665-3.665a1.414 1.414 0 0 1 2 0v0a1.414 1.414 0 0 1 0 2l-3.666 3.665a1.333 1.333 0 0 1-.754.377v0Z" stroke="#646A8C" stroke-width="1.2" stroke-linecap="round" stroke-linejoin="round"/></svg>