<svg width="16" height="16" viewBox="0 0 16 16" fill="none" xmlns="http://www.w3.org/2000/svg">
<path d="M12 4.66667V3.33333C12 2.59667 11.4033 2 10.6667 2H3.33333C2.59667 2 2 2.59667 2 3.33333V10C2 10.7367 2.59667 11.3333 3.33333 11.3333H4.66667" stroke="currentColor" stroke-width="1.2" stroke-linecap="round" stroke-linejoin="round"/>
<path fill-rule="evenodd" clip-rule="evenodd" d="M12.963 14.0003H5.70433C5.13099 14.0003 4.66699 13.5363 4.66699 12.963V5.70433C4.66699 5.13099 5.13099 4.66699 5.70433 4.66699H12.9637C13.5363 4.66699 14.0003 5.13099 14.0003 5.70433V12.9637C14.0003 13.5363 13.5363 14.0003 12.963 14.0003Z" stroke="currentColor" stroke-width="1.2" stroke-linecap="round" stroke-linejoin="round"/>
<path d="M11.9268 7.26009H8.81348" stroke="currentColor" stroke-width="1.2" stroke-linecap="round" stroke-linejoin="round"/>
<path d="M8.81348 9.33333H11.9268" stroke="currentColor" stroke-width="1.2" stroke-linecap="round" stroke-linejoin="round"/>
<path d="M8.81348 11.4066H11.9268" stroke="currentColor" stroke-width="1.2" stroke-linecap="round" stroke-linejoin="round"/>
<path d="M6.73957 7.12978C6.66824 7.12978 6.61024 7.18778 6.61024 7.25911C6.61024 7.33045 6.66824 7.38845 6.73957 7.38845C6.81091 7.38845 6.86891 7.33045 6.86891 7.25911C6.87024 7.18845 6.81157 7.12978 6.73957 7.12978" stroke="currentColor" stroke-width="1.2" stroke-linecap="round" stroke-linejoin="round"/>
<path d="M6.73958 9.204C6.66825 9.204 6.61025 9.262 6.61025 9.33333C6.61025 9.40467 6.66825 9.46267 6.73958 9.46267C6.81092 9.46267 6.86892 9.40467 6.86892 9.33333C6.86892 9.262 6.81158 9.204 6.73958 9.204" stroke="currentColor" stroke-width="1.2" stroke-linecap="round" stroke-linejoin="round"/>
<path d="M6.73958 11.2782C6.66825 11.2782 6.61025 11.3362 6.61025 11.4076C6.61025 11.4789 6.66825 11.5369 6.73958 11.5369C6.81092 11.5369 6.86892 11.4789 6.86892 11.4076C6.86892 11.3362 6.81158 11.2782 6.73958 11.2782" stroke="currentColor" stroke-width="1.2" stroke-linecap="round" stroke-linejoin="round"/>
</svg>
