<svg width="20" height="20" viewBox="0 0 20 20" fill="none" xmlns="http://www.w3.org/2000/svg">
<path d="M7.13076 3.07228C10.9566 1.48728 15.3424 3.30478 16.9274 7.13062C18.5124 10.9565 16.6949 15.3423 12.8691 16.9273C9.04326 18.5123 4.65742 16.6948 3.07242 12.869C1.48826 9.04312 3.30492 4.65728 7.13076 3.07228" stroke="currentColor" stroke-width="1.5" stroke-linecap="round" stroke-linejoin="round"/>
<path d="M8.07031 8.07019C8.26783 7.21889 9.0432 6.62864 9.91636 6.66488C10.8936 6.61076 11.7313 7.35542 11.7921 8.33224C11.7921 9.58602 9.99972 9.99961 9.99972 10.8333" stroke="currentColor" stroke-width="1.5" stroke-linecap="round" stroke-linejoin="round"/>
<path d="M10.1031 13.1264C10.103 13.184 10.0563 13.2305 9.99883 13.2305C9.94131 13.2305 9.89469 13.1839 9.89466 13.1264C9.89464 13.0688 9.94122 13.0222 9.99874 13.0221C10.0264 13.0221 10.053 13.0331 10.0726 13.0526C10.0921 13.0722 10.1031 13.0988 10.1031 13.1264" stroke="currentColor" stroke-width="1.5" stroke-linecap="round" stroke-linejoin="round"/>
</svg>
