<svg width="17" height="16" viewBox="0 0 17 16" fill="none" xmlns="http://www.w3.org/2000/svg">
    <path d="M2.3335 14L5.3335 11" stroke="#BBC0D3" stroke-linecap="round" stroke-linejoin="round"/>
    <path d="M2.3335 12L3.3335 11" stroke="#BBC0D3" stroke-linecap="round" stroke-linejoin="round"/>
    <path d="M4.3335 14L5.3335 13" stroke="#BBC0D3" stroke-linecap="round" stroke-linejoin="round"/>
    <path d="M5.9777 6.79727L5.54656 6.54405C5.53726 6.55988 5.52884 6.57621 5.52134 6.59296L5.9777 6.79727ZM9.52765 10.4306L9.70866 10.8966L9.52765 10.4306ZM11.2661 11.5427L11.0008 11.1189L11.2661 11.5427ZM3.39562 7.29796L3.80719 7.58187L3.39562 7.29796ZM3.442 7.40194L3.50567 6.90601L3.442 7.40194ZM5.65004 8.82165L5.29624 9.17496L5.65004 8.82165ZM5.47717 8.22201L4.99251 8.0991L5.47717 8.22201ZM4.94366 5.05387L4.53209 4.76996L4.94366 5.05387ZM7.50773 10.6819L7.86153 10.3286L7.50773 10.6819ZM8.10445 10.8602L7.99475 10.3723L8.10445 10.8602ZM9.02585 12.9448L8.76058 12.521L9.02585 12.9448ZM8.92436 12.8969L9.42021 12.8326L8.92436 12.8969ZM7.86153 10.3286L6.00383 8.46834L5.29624 9.17496L7.15393 11.0352L7.86153 10.3286ZM7.41821 5.32553C8.64855 3.68907 10.6452 2.30681 13.7103 2.52225L13.7804 1.52472C10.3188 1.2814 8.01532 2.86725 6.61891 4.72459L7.41821 5.32553ZM7.01856 4.52506H4.99854V5.52506H7.01856V4.52506ZM4.53209 4.76996L2.98404 7.01404L3.80719 7.58187L5.35523 5.33779L4.53209 4.76996ZM5.96183 8.34491C6.00258 8.1842 6.05156 8.01498 6.10923 7.83937L5.15914 7.52738C5.09447 7.72432 5.03904 7.9156 4.99251 8.0991L5.96183 8.34491ZM6.10923 7.83937C6.19712 7.5717 6.30493 7.28998 6.43405 7.00158L5.52134 6.59296C5.37792 6.91332 5.25768 7.22732 5.15914 7.52738L6.10923 7.83937ZM3.37833 7.89787L5.57052 8.1793L5.69785 7.18745L3.50567 6.90601L3.37833 7.89787ZM13.8086 2.6114C13.9621 4.45283 13.4581 7.31601 11.0059 9.07585L11.5889 9.88829C14.4325 7.84762 14.9751 4.56764 14.8051 2.52833L13.8086 2.6114ZM11.0059 9.07585C10.5329 9.41526 9.98373 9.71703 9.34663 9.96447L9.70866 10.8966C10.4215 10.6198 11.0454 10.2784 11.5889 9.88829L11.0059 9.07585ZM10.7974 9.48207V11.4862H11.7974V9.48207H10.7974ZM11.0008 11.1189L8.76058 12.521L9.29111 13.3687L11.5314 11.9666L11.0008 11.1189ZM9.34663 9.96447C9.08264 10.067 8.80333 10.1603 8.50788 10.2431L8.77766 11.206C9.10343 11.1147 9.41356 11.0112 9.70866 10.8966L9.34663 9.96447ZM8.50788 10.2431C8.34199 10.2895 8.171 10.3327 7.99475 10.3723L8.21415 11.348C8.40697 11.3046 8.59477 11.2572 8.77766 11.206L8.50788 10.2431ZM9.42021 12.8326L9.13862 10.6602L8.14692 10.7888L8.42851 12.9612L9.42021 12.8326ZM6.58742 4.77184L6.06699 5.65795L6.92927 6.16439L7.4497 5.27828L6.58742 4.77184ZM6.06699 5.65795L5.54656 6.54405L6.40883 7.05049L6.92927 6.16439L6.06699 5.65795ZM6.1477 6.26782L10.12 10.1708L10.8209 9.45748L6.84855 5.55451L6.1477 6.26782ZM10.7974 11.4862C10.7974 11.3369 10.8743 11.1981 11.0008 11.1189L11.5314 11.9666C11.6969 11.863 11.7974 11.6815 11.7974 11.4862H10.7974ZM2.98404 7.01404C2.74308 7.36335 2.95743 7.84383 3.37833 7.89787L3.50567 6.90601C3.82754 6.94733 3.99146 7.31475 3.80719 7.58187L2.98404 7.01404ZM6.00383 8.46834C5.96096 8.42541 5.95374 8.3768 5.96183 8.34491L4.99251 8.0991C4.89112 8.4989 5.02442 8.90277 5.29624 9.17496L6.00383 8.46834ZM4.99854 4.52506C4.81225 4.52506 4.63787 4.61662 4.53209 4.76996L5.35523 5.33779C5.27434 5.45505 5.14099 5.52506 4.99854 5.52506V4.52506ZM7.15393 11.0352C7.4254 11.3071 7.82248 11.436 8.21415 11.348L7.99475 10.3723C7.95445 10.3814 7.90292 10.3701 7.86153 10.3286L7.15393 11.0352ZM8.76058 12.521C9.02832 12.3534 9.37961 12.5194 9.42021 12.8326L8.42851 12.9612C8.48161 13.3708 8.94099 13.5878 9.29111 13.3687L8.76058 12.521ZM13.7103 2.52225C13.7701 2.52646 13.8051 2.56932 13.8086 2.6114L14.8051 2.52833C14.7592 1.97704 14.3145 1.56226 13.7804 1.52472L13.7103 2.52225Z" fill="#BBC0D3"/>
    <circle cx="10.7332" cy="5.59993" r="1.20002" fill="#BBC0D3"/>
</svg>
