<svg width="17" height="16" viewBox="0 0 17 16" fill="none" xmlns="http://www.w3.org/2000/svg">
<path d="M9.4982 6.58579C10.2792 7.36683 10.2792 8.63317 9.4982 9.41421C8.71715 10.1953 7.45082 10.1953 6.66977 9.41421C5.88872 8.63317 5.88872 7.36683 6.66977 6.58579C7.45082 5.80474 8.71715 5.80474 9.4982 6.58579" stroke="currentColor" stroke-width="1.2" stroke-linecap="round" stroke-linejoin="round"/>
<path fill-rule="evenodd" clip-rule="evenodd" d="M10.8707 12.4833V12.4833C11.206 12.8187 11.7507 12.8187 12.086 12.4833L12.5673 12.002C12.9027 11.6667 12.9027 11.122 12.5673 10.7867V10.7867C12.3127 10.532 12.238 10.15 12.378 9.818C12.3927 9.78267 12.4073 9.74733 12.4213 9.71133C12.5433 9.40067 12.846 9.20067 13.1793 9.20067H13.224C13.6987 9.20067 14.0833 8.816 14.0833 8.34133V7.66067C14.0833 7.186 13.6987 6.80133 13.224 6.80133H13.1793C12.846 6.80133 12.5433 6.60067 12.4213 6.29067C12.4073 6.25467 12.3927 6.21933 12.378 6.184C12.238 5.852 12.3127 5.47 12.5673 5.21533V5.21533C12.9027 4.88 12.9027 4.33533 12.5673 4L12.086 3.51867C11.7507 3.18333 11.206 3.18333 10.8707 3.51867V3.51867C10.616 3.77333 10.234 3.848 9.90198 3.708C9.86665 3.69333 9.83132 3.67867 9.79532 3.66467C9.48465 3.54067 9.28398 3.23733 9.28398 2.904V2.85933C9.28398 2.38467 8.89932 2 8.42465 2H7.74398C7.26865 2 6.88398 2.38467 6.88398 2.85933V2.904C6.88398 3.23733 6.68332 3.54 6.37332 3.662C6.33732 3.67667 6.30198 3.69067 6.26665 3.706C5.93465 3.846 5.55265 3.77133 5.29798 3.51667V3.51667C4.96265 3.18133 4.41798 3.18133 4.08265 3.51667L3.60065 3.998C3.26532 4.33333 3.26532 4.878 3.60065 5.21333V5.21333C3.85532 5.468 3.92998 5.85 3.78998 6.182C3.77465 6.218 3.76065 6.25333 3.74665 6.28933C3.62465 6.59933 3.32132 6.8 2.98798 6.8H2.94332C2.46865 6.8 2.08398 7.18467 2.08398 7.65933V8.34C2.08398 8.81533 2.46865 9.2 2.94332 9.2H2.98798C3.32132 9.2 3.62398 9.40067 3.74598 9.71067C3.75998 9.74667 3.77465 9.782 3.78932 9.81733C3.92932 10.1493 3.85465 10.5313 3.59998 10.786V10.786C3.26465 11.1213 3.26465 11.666 3.59998 12.0013L4.08132 12.4827C4.41665 12.818 4.96132 12.818 5.29665 12.4827V12.4827C5.55132 12.228 5.93332 12.1533 6.26532 12.2933C6.30065 12.308 6.33598 12.3227 6.37198 12.3367C6.68265 12.4587 6.88265 12.7613 6.88265 13.0947V13.1393C6.88265 13.614 7.26732 13.9987 7.74198 13.9987H8.42265C8.89732 13.9987 9.28198 13.614 9.28198 13.1393V13.0947C9.28198 12.7613 9.48265 12.4587 9.79265 12.3367C9.82865 12.3227 9.86398 12.308 9.89932 12.2933C10.2333 12.154 10.6153 12.2287 10.8707 12.4833V12.4833Z" stroke="currentColor" stroke-width="1.2" stroke-linecap="round" stroke-linejoin="round"/>
</svg>
