<svg width="18" height="6" viewBox="0 0 18 6" fill="none" xmlns="http://www.w3.org/2000/svg">
<path d="M5.01918 2.34646V3.48416L3.59706 3.38935L4.43453 4.52705L3.45485 5.1275L2.75959 3.81599L2.06433 5.1275L1.08465 4.52705L1.93792 3.38935L0.5 3.48416V2.34646L1.93792 2.44127L1.08465 1.30358L2.06433 0.703125L2.75959 2.01464L3.45485 0.703125L4.43453 1.30358L3.59706 2.44127L5.01918 2.34646Z" fill="#008E6C"/>
<path d="M11.2842 2.34646V3.48416L9.86204 3.38935L10.6995 4.52705L9.71983 5.1275L9.02457 3.81599L8.32931 5.1275L7.34963 4.52705L8.2029 3.38935L6.76498 3.48416V2.34646L8.2029 2.44127L7.34963 1.30358L8.32931 0.703125L9.02457 2.01464L9.71983 0.703125L10.6995 1.30358L9.86204 2.44127L11.2842 2.34646Z" fill="#008E6C"/>
<path d="M17.5491 2.34646V3.48416L16.127 3.38935L16.9645 4.52705L15.9848 5.1275L15.2896 3.81599L14.5943 5.1275L13.6146 4.52705L14.4679 3.38935L13.03 3.48416V2.34646L14.4679 2.44127L13.6146 1.30358L14.5943 0.703125L15.2896 2.01464L15.9848 0.703125L16.9645 1.30358L16.127 2.44127L17.5491 2.34646Z" fill="#008E6C"/>
</svg>
