<svg width="16" height="16" viewBox="0 0 16 16" fill="none" xmlns="http://www.w3.org/2000/svg">
<path fill-rule="evenodd" clip-rule="evenodd" d="M11.8337 3.3398C12.0768 3.10228 12.4551 3.08818 12.7143 3.29455L12.7765 3.35073L12.8411 3.41704C14.0054 4.64656 14.6663 6.27235 14.6663 8.00016C14.6663 11.6821 11.6816 14.6668 7.99967 14.6668C4.31778 14.6668 1.33301 11.6821 1.33301 8.00016C1.33301 6.34747 1.93773 4.78813 3.01556 3.57306L3.16546 3.40952L3.2229 3.35073C3.48021 3.08738 3.90229 3.08249 4.16564 3.3398C4.40874 3.57732 4.43161 3.95523 4.2313 4.2191L4.17658 4.28254L4.12637 4.33381C3.19432 5.31809 2.66634 6.61683 2.66634 8.00016C2.66634 10.9457 5.05416 13.3335 7.99967 13.3335C10.9452 13.3335 13.333 10.9457 13.333 8.00016C13.333 6.68963 12.8591 5.45504 12.0229 4.4982L11.8802 4.34133L11.8228 4.28254C11.5655 4.01919 11.5704 3.59711 11.8337 3.3398ZM7.99967 1.3335C8.36786 1.3335 8.66634 1.63197 8.66634 2.00016V7.3335C8.66634 7.70169 8.36786 8.00016 7.99967 8.00016C7.63148 8.00016 7.33301 7.70169 7.33301 7.3335V2.00016C7.33301 1.63197 7.63148 1.3335 7.99967 1.3335Z" fill="#FFB600"/>
</svg>
