<svg width="16" height="16" viewBox="0 0 16 16" fill="none" xmlns="http://www.w3.org/2000/svg">
<path fill-rule="evenodd" clip-rule="evenodd" d="M7.28742 3.75949C6.9187 3.75949 6.60505 3.9924 6.51701 4.30632H9.47747C9.38947 3.9924 9.0758 3.75949 8.70708 3.75949H7.28742ZM10.3139 4.30632H11.4035C12.559 4.30632 13.5 5.17214 13.5 6.23542C13.5 6.23542 13.467 6.68555 13.456 7.3124C13.4549 7.362 13.4284 7.4106 13.385 7.44C13.1203 7.6177 12.8782 7.76455 12.8562 7.77465C11.9427 8.3316 10.8812 8.7235 9.75043 8.91845C9.67668 8.9316 9.60408 8.8967 9.56662 8.83695C9.24966 8.3377 8.65758 8.01265 7.99725 8.01265C7.34132 8.01265 6.74372 8.33415 6.41741 8.8339C6.37944 8.89265 6.3079 8.92655 6.23472 8.9139C5.11326 8.71845 4.05178 8.32705 3.14382 7.7797L2.61556 7.44555C2.57154 7.42025 2.54402 7.37465 2.54402 7.32405C2.52752 7.0658 2.5 6.23542 2.5 6.23542C2.5 5.17214 3.44097 4.30632 4.59655 4.30632H5.68059C5.78514 3.57215 6.46198 3 7.28742 3H8.70708C9.53252 3 10.2094 3.57215 10.3139 4.30632ZM13.3129 8.4076L13.2909 8.41775C12.1793 9.0962 10.8422 9.54685 9.43896 9.7342C9.24085 9.7595 9.04275 9.64305 8.98775 9.4608C8.86669 9.0456 8.47597 8.77215 8.00825 8.77215H8.00275H7.99175C7.52403 8.77215 7.13331 9.0456 7.01225 9.4608C6.95725 9.64305 6.75913 9.7595 6.56103 9.7342C5.15783 9.54685 3.82066 9.0962 2.7091 8.41775C2.7036 8.4127 2.64858 8.3823 2.60455 8.4076C2.55503 8.43295 2.55503 8.4937 2.55503 8.4937L2.59355 11.0759C2.59355 12.1392 3.52902 13 4.68459 13H11.3099C12.4655 13 13.4009 12.1392 13.4009 11.0759L13.445 8.4937C13.445 8.4937 13.445 8.43295 13.3954 8.4076C13.3679 8.39245 13.3349 8.3975 13.3129 8.4076ZM8.40997 10.5292C8.40997 10.7418 8.22836 10.9088 7.99725 10.9088C7.77164 10.9088 7.58453 10.7418 7.58453 10.5292V9.87595C7.58453 9.66835 7.77164 9.4962 7.99725 9.4962C8.22836 9.4962 8.40997 9.66835 8.40997 9.87595V10.5292Z" fill="#2AABED"/>
</svg>
