<svg width="16" height="16" viewBox="0 0 16 16" fill="none" xmlns="http://www.w3.org/2000/svg">
<path d="M14.2356 3.76435L14.2363 3.765C14.297 3.82542 14.334 3.90794 14.334 4.00065V12.6673C14.334 13.2186 13.8852 13.6673 13.334 13.6673H2.66732C2.11608 13.6673 1.66732 13.2186 1.66732 12.6673V4.00065C1.66732 3.90794 1.70428 3.82542 1.76504 3.765L1.76569 3.76435L3.76502 1.76502L3.76565 1.76439C3.82728 1.70243 3.91136 1.66732 4.00065 1.66732H12.0007C12.0899 1.66732 12.174 1.70243 12.2357 1.76439L12.2363 1.76502L14.2356 3.76435ZM4.27665 2.33398H4.13858L4.04095 2.43162L3.37428 3.09828L2.80525 3.66732H3.60998H12.3913H13.1961L12.627 3.09828L11.9604 2.43162L11.8627 2.33398H11.7247H4.27665ZM2.33398 12.6673V13.0007H2.66732H13.3353H13.6687L13.6687 12.6673L13.6673 4.66726L13.6673 4.33398H13.334H2.66732H2.33398V4.66732V12.6673Z" fill="#646A8C" stroke="#646A8C" stroke-width="0.666667"/>
<path d="M6.66699 8.33333H7.00033V8V6.33333H9.00033V8V8.33333H9.33366H10.5289L8.00033 10.8619L5.47173 8.33333H6.66699Z" fill="#646A8C" stroke="#646A8C" stroke-width="0.666667"/>
</svg>
