<svg width="16" height="16" viewBox="0 0 16 16" fill="none" xmlns="http://www.w3.org/2000/svg">
<path d="M6.66675 5.33333H4.66675" stroke="currentColor" stroke-width="1.2" stroke-linecap="round" stroke-linejoin="round"/>
<path d="M2 12.3333V3.66667C2 2.74619 2.74619 2 3.66667 2H4C4.36819 2 4.66667 2.29848 4.66667 2.66667V10C4.66667 10.3682 4.36819 10.6667 4 10.6667H3.66667C2.74619 10.6667 2 11.4129 2 12.3333H2C2 13.2538 2.74619 14 3.66667 14H12.6667C13.403 14 14 13.403 14 12.6667V7.33333" stroke="currentColor" stroke-width="1.2" stroke-linecap="round" stroke-linejoin="round"/>
<path fill-rule="evenodd" clip-rule="evenodd" d="M9.833 8.45572L8.38052 8.66322C8.27698 8.67872 8.17221 8.64443 8.09788 8.57072C8.02355 8.497 7.98838 8.39252 8.00302 8.28886C8.06245 7.87286 8.15142 7.2502 8.21102 6.83326C8.25183 6.54773 8.38414 6.28313 8.5881 6.07918L12.253 2.4141C12.5181 2.14898 12.8777 2.00003 13.2526 2.00003C13.6275 2.00003 13.9871 2.14898 14.2522 2.4141V2.4141C14.8043 2.9662 14.8043 3.86129 14.2522 4.41339L10.5872 8.0786C10.3832 8.28259 10.1186 8.41492 9.833 8.45572V8.45572Z" stroke="currentColor" stroke-width="1.2" stroke-linecap="round" stroke-linejoin="round"/>
</svg>
