<svg width="16" height="16" viewBox="0 0 16 16" fill="none" xmlns="http://www.w3.org/2000/svg">
<path d="M10 10L8 8" stroke='currentColor' stroke-width="1.2" stroke-linecap="round" stroke-linejoin="round"/>
<path d="M8 8L6 10" stroke='currentColor' stroke-width="1.2" stroke-linecap="round" stroke-linejoin="round"/>
<path d="M8.0013 13.3333V8" stroke='currentColor' stroke-width="1.2" stroke-linecap="round" stroke-linejoin="round"/>
<path d="M5.33203 12.6665H3.9987C2.52594 12.6665 1.33203 11.4726 1.33203 9.99984C1.33203 8.52708 2.52594 7.33317 3.9987 7.33317L3.99203 7.28626C3.8261 6.12476 4.17237 4.94842 4.94111 4.06204C5.70985 3.17567 6.8254 2.66651 7.9987 2.6665C9.17199 2.66651 10.2875 3.17567 11.0563 4.06204C11.825 4.94842 12.1713 6.12476 12.0054 7.28626L11.9987 7.33317C13.4715 7.33317 14.6654 8.52708 14.6654 9.99984C14.6654 11.4726 13.4715 12.6665 11.9987 12.6665H10.6654" stroke='currentColor' stroke-width="1.2" stroke-linecap="round" stroke-linejoin="round"/>
</svg>
