<svg width="24" height="24" viewBox="0 0 24 24" fill="none" xmlns="http://www.w3.org/2000/svg">
<path d="M13 21H17C18.6569 21 20 19.6569 20 18V8.50931C20 7.71366 19.6839 6.95061 19.1213 6.388L16.612 3.87868C16.0494 3.31607 15.2863 3 14.4907 3H7C5.34315 3 4 4.34315 4 6V13" stroke="#646A8C" stroke-width="1.5" stroke-linecap="round" stroke-linejoin="round"/>
<path d="M20 8.5H16.5C15.3954 8.5 14.5 7.60457 14.5 6.5V3" stroke="#646A8C" stroke-width="1.5" stroke-linecap="round" stroke-linejoin="round"/>
<path fill-rule="evenodd" clip-rule="evenodd" d="M6.46967 13.4697C6.54131 13.398 6.62383 13.3439 6.71192 13.3073C6.80062 13.2704 6.89793 13.25 7 13.25C7.10169 13.25 7.19866 13.2702 7.28709 13.3069C7.37555 13.3435 7.45842 13.3978 7.53033 13.4697L9.53033 15.4697C9.82322 15.7626 9.82322 16.2374 9.53033 16.5303C9.23744 16.8232 8.76256 16.8232 8.46967 16.5303L7.75 15.8107V19C7.75 19.4142 7.41421 19.75 7 19.75C6.58579 19.75 6.25 19.4142 6.25 19V15.8107L5.53033 16.5303C5.23744 16.8232 4.76256 16.8232 4.46967 16.5303C4.17678 16.2374 4.17678 15.7626 4.46967 15.4697L6.46967 13.4697ZM9.75 21C9.75 20.5858 9.41421 20.25 9 20.25H5C4.58579 20.25 4.25 20.5858 4.25 21C4.25 21.4142 4.58579 21.75 5 21.75H9C9.41421 21.75 9.75 21.4142 9.75 21Z" fill="#43A6CF"/>
</svg>
