<svg width="24" height="24" viewBox="0 0 24 24" fill="none" xmlns="http://www.w3.org/2000/svg">
<path d="M13 21H17C18.6569 21 20 19.6569 20 18V8.50931C20 7.71366 19.6839 6.95061 19.1213 6.388L16.612 3.87868C16.0494 3.31607 15.2863 3 14.4907 3H7C5.34315 3 4 4.34315 4 6V13" stroke="#646A8C" stroke-width="1.5" stroke-linecap="round" stroke-linejoin="round"/>
<path d="M20 8.5H16.5C15.3954 8.5 14.5 7.60457 14.5 6.5V3" stroke="#646A8C" stroke-width="1.5" stroke-linecap="round" stroke-linejoin="round"/>
<circle cx="7.32318" cy="18.6769" r="4.32318" fill="#E1F8C6"/>
<path fill-rule="evenodd" clip-rule="evenodd" d="M10.3536 16.8454C10.6465 17.1383 10.6465 17.6132 10.3536 17.9061L7.35357 20.9061C7.06068 21.199 6.58581 21.199 6.29291 20.9061L4.29291 18.9061C4.00002 18.6132 4.00002 18.1383 4.29291 17.8454C4.58581 17.5525 5.06068 17.5525 5.35357 17.8454L6.82324 19.3151L9.29291 16.8454C9.58581 16.5525 10.0607 16.5525 10.3536 16.8454Z" fill="#7EBF2F"/>
</svg>
