<svg width="17" height="16" viewBox="0 0 17 16" fill="none" xmlns="http://www.w3.org/2000/svg">
<path d="M6.16602 8C6.16602 8.69036 5.60637 9.25 4.91602 9.25C4.22566 9.25 3.66602 8.69036 3.66602 8C3.66602 7.30964 4.22566 6.75 4.91602 6.75C5.60637 6.75 6.16602 7.30964 6.16602 8ZM10.166 8C10.166 8.69036 9.60637 9.25 8.91602 9.25C8.22566 9.25 7.66602 8.69036 7.66602 8C7.66602 7.30964 8.22566 6.75 8.91602 6.75C9.60637 6.75 10.166 7.30964 10.166 8ZM12.916 9.25C13.6064 9.25 14.166 8.69036 14.166 8C14.166 7.30964 13.6064 6.75 12.916 6.75C12.2257 6.75 11.666 7.30964 11.666 8C11.666 8.69036 12.2257 9.25 12.916 9.25Z" fill="currentColor"/>
</svg>
