<svg width="17" height="16" viewBox="0 0 17 16" fill="none" xmlns="http://www.w3.org/2000/svg">
<path d="M6.55664 12.2292V12.4725C6.55664 13.3158 7.24064 13.9998 8.08464 13.9998V13.9998C8.92864 13.9998 9.61264 13.3158 9.61264 12.4718V12.2285" stroke="currentColor" stroke-width="1.2" stroke-linecap="round" stroke-linejoin="round"/>
<path d="M9.30631 3.834V3.222C9.30631 2.54733 8.75964 2 8.08431 2V2C7.40897 2 6.8623 2.54733 6.8623 3.222V3.834" stroke="currentColor" stroke-width="1.2" stroke-linecap="round" stroke-linejoin="round"/>
<path fill-rule="evenodd" clip-rule="evenodd" d="M4.45964 6.79215V6.79215C4.45964 5.12348 5.81231 3.77148 7.48031 3.77148H8.68898C10.3576 3.77148 11.7096 5.12415 11.7096 6.79215V6.79215V8.65682C11.7096 9.01015 11.8503 9.34948 12.1003 9.59948L12.5276 10.0268C12.7776 10.2768 12.9183 10.6161 12.9183 10.9695V10.9695C12.9183 11.6655 12.3543 12.2295 11.6583 12.2295H4.51098C3.81498 12.2295 3.25098 11.6655 3.25098 10.9695V10.9695C3.25098 10.6161 3.39164 10.2768 3.64164 10.0268L4.06898 9.59948C4.31898 9.34948 4.45964 9.01015 4.45964 8.65682V6.79215Z" stroke="currentColor" stroke-width="1.2" stroke-linecap="round" stroke-linejoin="round"/>
</svg>
