<svg width="16" height="16" viewBox="0 0 16 16" fill="none" xmlns="http://www.w3.org/2000/svg">
<path d="M13.04 4.74609C14.32 6.72609 14.3194 9.27543 13.0407 11.2548" stroke="currentColor" stroke-width="1.2" stroke-linecap="round" stroke-linejoin="round"/>
<path d="M10.365 5.6349C11.6711 6.94108 11.6711 9.0588 10.365 10.365C9.0588 11.6711 6.94108 11.6711 5.6349 10.365C4.32873 9.0588 4.32873 6.94108 5.6349 5.6349C6.94108 4.32873 9.0588 4.32873 10.365 5.6349" stroke="currentColor" stroke-width="1.2" stroke-linecap="round" stroke-linejoin="round"/>
<path d="M9.54688 5.03445L11.2695 2.94178C11.5202 2.63711 11.9789 2.61511 12.2582 2.89378L13.1069 3.74245C13.3862 4.02178 13.3635 4.48045 13.0589 4.73111L10.9662 6.45378" stroke="currentColor" stroke-width="1.2" stroke-linecap="round" stroke-linejoin="round"/>
<path d="M6.45307 10.9662L4.7304 13.0589C4.47973 13.3635 4.02107 13.3855 3.74173 13.1069L2.89307 12.2582C2.61373 11.9789 2.6364 11.5202 2.94107 11.2695L5.03373 9.54688" stroke="currentColor" stroke-width="1.2" stroke-linecap="round" stroke-linejoin="round"/>
<path d="M5.03414 6.45307L2.9408 4.7304C2.63614 4.47973 2.61414 4.02107 2.8928 3.74173L3.74147 2.89307C4.0208 2.61373 4.47947 2.6364 4.73014 2.94107L6.4528 5.03373" stroke="currentColor" stroke-width="1.2" stroke-linecap="round" stroke-linejoin="round"/>
<path d="M10.9662 9.54688L13.0589 11.2695C13.3635 11.5202 13.3855 11.9789 13.1069 12.2582L12.2582 13.1069C11.9789 13.3862 11.5202 13.3635 11.2695 13.0589L9.54688 10.9662" stroke="currentColor" stroke-width="1.2" stroke-linecap="round" stroke-linejoin="round"/>
<path d="M11.2548 13.0407C9.27543 14.3194 6.72543 14.32 4.74609 13.04" stroke="currentColor" stroke-width="1.2" stroke-linecap="round" stroke-linejoin="round"/>
<path d="M2.95917 4.74512C1.6805 6.72445 1.67983 9.27378 2.95983 11.2538" stroke="currentColor" stroke-width="1.2" stroke-linecap="round" stroke-linejoin="round"/>
<path d="M11.2538 2.95983C9.27378 1.67983 6.72445 1.6805 4.74512 2.95917" stroke="currentColor" stroke-width="1.2" stroke-linecap="round" stroke-linejoin="round"/>
</svg>
