<svg width="24" height="24" viewBox="0 0 24 24" fill="none" xmlns="http://www.w3.org/2000/svg">
<path d="M3.75 11.4252C3.75 10.1262 3.75764 9.63296 3.89024 9.19633C4.01439 8.78752 4.21794 8.40719 4.48923 8.07712C4.77897 7.72459 5.18512 7.44464 6.26594 6.72409L8.86594 4.99076C10.198 4.10273 10.7105 3.7744 11.2426 3.64688C11.7405 3.52757 12.2595 3.52757 12.7574 3.64688C13.2895 3.7744 13.802 4.10273 15.1341 4.99076L17.7341 6.72409C18.8149 7.44464 19.221 7.72459 19.5108 8.07712C19.7821 8.40719 19.9856 8.78752 20.1098 9.19633L20.8274 8.97839L20.1098 9.19633C20.2424 9.63296 20.25 10.1262 20.25 11.4252V15.6C20.25 16.7325 20.2494 17.5367 20.198 18.1661C20.1473 18.7867 20.0509 19.171 19.8958 19.4755C19.5842 20.087 19.087 20.5842 18.4755 20.8958C18.171 21.0509 17.7867 21.1473 17.1661 21.198C16.5367 21.2494 15.7325 21.25 14.6 21.25H9.4C8.26752 21.25 7.46326 21.2494 6.83388 21.198C6.21325 21.1473 5.829 21.0509 5.52453 20.8958C4.913 20.5842 4.41582 20.087 4.10423 19.4755C3.94909 19.171 3.85271 18.7867 3.80201 18.1661C3.75058 17.5367 3.75 16.7325 3.75 15.6V11.4252Z" stroke="currentColor" stroke-width="1.5"/>
<path d="M16 15.2383C13.79 17.4483 10.208 17.4483 8 15.2383" stroke="currentColor" stroke-width="1.5" stroke-linecap="round" stroke-linejoin="round"/>
</svg>
