<svg width="24" height="24" viewBox="0 0 24 24" fill="none" xmlns="http://www.w3.org/2000/svg">
<path d="M21.0037 12C21.0037 16.9726 16.9726 21.0037 12 21.0037" stroke="currentColor" stroke-width="1.2" stroke-linecap="round" stroke-linejoin="round"/>
<path d="M2.99609 11.9998C2.99609 7.02721 7.02721 2.99609 11.9998 2.99609" stroke="currentColor" stroke-width="1.2" stroke-linecap="round" stroke-linejoin="round"/>
<path d="M2.99609 12.0002C2.99623 13.0549 3.18381 14.1011 3.55008 15.0901C3.71759 15.5494 4.18986 15.823 4.67165 15.7398L5.65825 15.5658C6.45566 15.4252 6.99772 14.6773 6.88321 13.8758L6.58627 11.7972C6.52878 11.3948 6.31051 11.0329 5.98139 10.7944C5.65227 10.5558 5.24046 10.461 4.84015 10.5316L3.07883 10.8422" stroke="currentColor" stroke-width="1.2" stroke-linecap="round" stroke-linejoin="round"/>
<path d="M21.0037 11.9998C21.0037 7.02721 16.9726 2.99609 12 2.99609" stroke="currentColor" stroke-width="1.2" stroke-linecap="round" stroke-linejoin="round"/>
<path d="M21.0039 12.0002C21.0038 13.0549 20.8162 14.1011 20.4499 15.0901C20.2824 15.5494 19.8102 15.823 19.3284 15.7398L18.3418 15.5658C17.5444 15.4252 17.0023 14.6773 17.1168 13.8758L17.4138 11.7972C17.4713 11.3948 17.6895 11.0329 18.0186 10.7944C18.3478 10.5558 18.7596 10.461 19.1599 10.5316L20.9212 10.8422" stroke="currentColor" stroke-width="1.2" stroke-linecap="round" stroke-linejoin="round"/>
<path d="M13.4924 12.4908C13.4894 12.4908 13.4866 12.4926 13.4855 12.4954C13.4843 12.4982 13.485 12.5014 13.4871 12.5035C13.4892 12.5057 13.4925 12.5063 13.4952 12.5052C13.498 12.504 13.4999 12.5013 13.4999 12.4983C13.5 12.4962 13.4992 12.4943 13.4978 12.4928C13.4964 12.4914 13.4944 12.4907 13.4924 12.4908" stroke="currentColor" stroke-width="1.2" stroke-linecap="round" stroke-linejoin="round"/>
<path d="M10.508 12.4937C10.505 12.4937 10.5023 12.4955 10.5011 12.4983C10.5 12.5011 10.5006 12.5043 10.5027 12.5065C10.5049 12.5086 10.5081 12.5093 10.5109 12.5081C10.5137 12.5069 10.5155 12.5042 10.5155 12.5012C10.5156 12.4992 10.5149 12.4972 10.5134 12.4958C10.512 12.4943 10.51 12.4936 10.508 12.4937" stroke="currentColor" stroke-width="1.2" stroke-linecap="round" stroke-linejoin="round"/>
</svg>
