<svg width="16" height="16" viewBox="0 0 16 16" fill="none" xmlns="http://www.w3.org/2000/svg">
<path fill-rule="evenodd" clip-rule="evenodd" d="M8 8.66699V8.66699C6.89533 8.66699 6 7.77166 6 6.66699V6.66699C6 5.56233 6.89533 4.66699 8 4.66699V4.66699C9.10467 4.66699 10 5.56233 10 6.66699V6.66699C10 7.77166 9.10467 8.66699 8 8.66699Z" stroke="currentColor" stroke-width="1.2" stroke-linecap="round" stroke-linejoin="round"/>
<path fill-rule="evenodd" clip-rule="evenodd" d="M9.20202 12.8841C8.52953 13.562 7.46982 13.562 6.79733 12.8841C5.41462 11.4905 3.33301 9.00424 3.33301 6.66667C3.33301 4.08933 5.42234 2 7.99967 2C10.577 2 12.6663 4.08933 12.6663 6.66667C12.6663 9.00424 10.5847 11.4905 9.20202 12.8841Z" stroke="currentColor" stroke-width="1.2" stroke-linecap="round" stroke-linejoin="round"/>
</svg>