<svg width="16" height="16" viewBox="0 0 16 16" fill="none" xmlns="http://www.w3.org/2000/svg">
<path fill-rule="evenodd" clip-rule="evenodd" d="M12.5672 4.02228L10.5535 2.00858C10.2865 1.74155 9.92402 1.59131 9.54663 1.59131H4.43974C3.65292 1.59131 3.01562 2.2286 3.01562 3.01543V12.9843C3.01562 13.7711 3.65292 14.4084 4.43974 14.4084H11.5603C12.3472 14.4084 12.9845 13.7711 12.9845 12.9843V5.02913C12.9845 4.65174 12.8342 4.2893 12.5672 4.02228V4.02228Z" stroke="#646A8C" stroke-width="1.17842" stroke-linecap="round" stroke-linejoin="round"/>
<path d="M12.9861 5.1516H10.1378C9.74478 5.1516 9.42578 4.8326 9.42578 4.43954V1.59131" stroke="#646A8C" stroke-width="1.17842" stroke-linecap="round" stroke-linejoin="round"/>
<path d="M10.8488 10.5079L9.03805 9.03467L7.51923 10.6211L6.68327 10.06L5.15234 11.3546" stroke="#646A8C" stroke-width="1.17842" stroke-linecap="round" stroke-linejoin="round"/>
<path fill-rule="evenodd" clip-rule="evenodd" d="M10.1368 12.2706H5.8644C5.47135 12.2706 5.15234 11.9516 5.15234 11.5585V7.99819C5.15234 7.60514 5.47135 7.28613 5.8644 7.28613H10.1368C10.5298 7.28613 10.8488 7.60514 10.8488 7.99819V11.5585C10.8488 11.9516 10.5298 12.2706 10.1368 12.2706Z" stroke="#646A8C" stroke-width="1.17842" stroke-linecap="round" stroke-linejoin="round"/>
</svg>
