<svg width="16" height="16" viewBox="0 0 16 16" fill="none" xmlns="http://www.w3.org/2000/svg">
<path d="M10.3576 7.60444C10.7665 7.81778 11.0865 8.11111 11.3176 8.48445C11.5487 8.85778 11.6643 9.28889 11.6643 9.77778C11.6643 10.5422 11.3932 11.1778 10.851 11.6844C10.3087 12.1911 9.64651 12.4444 8.86429 12.4444H4.86429V3.11111H8.57096C9.3354 3.11111 9.97984 3.36 10.5043 3.85778C11.0376 4.34667 11.3043 4.96 11.3043 5.69778C11.3043 6.50667 10.9887 7.14222 10.3576 7.60444ZM8.57096 4.55111H6.39762V7.00444H8.57096C8.90873 7.00444 9.19318 6.88889 9.42429 6.65778C9.6554 6.41778 9.77096 6.12444 9.77096 5.77778C9.77096 5.43111 9.6554 5.14222 9.42429 4.91111C9.19318 4.67111 8.90873 4.55111 8.57096 4.55111ZM8.86429 11.0044C9.21984 11.0044 9.51762 10.88 9.75762 10.6311C10.0065 10.3733 10.131 10.0622 10.131 9.69778C10.131 9.33333 10.0065 9.02667 9.75762 8.77778C9.51762 8.52 9.21984 8.39111 8.86429 8.39111H6.39762V11.0044H8.86429Z" fill="currentColor"/>
</svg>