<svg width="10" height="12" viewBox="0 0 10 12" fill="none" xmlns="http://www.w3.org/2000/svg">
<path d="M5.10311 11.195C4.09311 11.195 3.23311 10.965 2.52311 10.505C1.82311 10.045 1.33311 9.415 1.05311 8.615L2.53811 7.745C2.95811 8.925 3.82811 9.515 5.14811 9.515C5.79811 9.515 6.28311 9.39 6.60311 9.14C6.93311 8.88 7.09811 8.545 7.09811 8.135C7.09811 7.705 6.92311 7.38 6.57311 7.16C6.22311 6.93 5.60311 6.68 4.71311 6.41C4.21311 6.26 3.80811 6.12 3.49811 5.99C3.18811 5.86 2.85811 5.68 2.50811 5.45C2.16811 5.21 1.91311 4.915 1.74311 4.565C1.57311 4.215 1.48811 3.805 1.48811 3.335C1.48811 2.405 1.81811 1.67 2.47811 1.13C3.13811 0.579999 3.93311 0.304999 4.86311 0.304999C5.70311 0.304999 6.43811 0.509999 7.06811 0.919999C7.69811 1.33 8.18311 1.895 8.52311 2.615L7.06811 3.455C6.62811 2.475 5.89311 1.985 4.86311 1.985C4.36311 1.985 3.96311 2.105 3.66311 2.345C3.36311 2.575 3.21311 2.89 3.21311 3.29C3.21311 3.68 3.36311 3.99 3.66311 4.22C3.97311 4.44 4.52811 4.675 5.32811 4.925C5.72811 5.055 6.01811 5.155 6.19811 5.225C6.38811 5.285 6.64811 5.385 6.97811 5.525C7.31811 5.665 7.57311 5.805 7.74311 5.945C7.91311 6.085 8.09311 6.26 8.28311 6.47C8.48311 6.68 8.62311 6.92 8.70311 7.19C8.78311 7.46 8.82311 7.765 8.82311 8.105C8.82311 9.055 8.47811 9.81 7.78811 10.37C7.10811 10.92 6.21311 11.195 5.10311 11.195Z" fill="currentColor"/>
<path d="M0.558105 6.5H9.27311V7.25H0.558105V6.5Z" fill="currentColor"/>
</svg>
