<svg width="10" height="13" viewBox="0 0 10 13" fill="none" xmlns="http://www.w3.org/2000/svg">
<path d="M7.55145 8.73778C6.89368 9.32444 6.04479 9.61778 5.00479 9.61778C3.96479 9.61778 3.1159 9.32444 2.45812 8.73778C1.80034 8.14222 1.47145 7.34667 1.47145 6.35111V0.111111H3.00479V6.25778C3.00479 6.82667 3.16923 7.28 3.49812 7.61778C3.8359 7.95556 4.33812 8.12444 5.00479 8.12444C5.67145 8.12444 6.16923 7.95556 6.49812 7.61778C6.8359 7.28 7.00479 6.82667 7.00479 6.25778V0.111111H8.53812V6.35111C8.53812 7.34667 8.20923 8.14222 7.55145 8.73778Z" fill="currentColor"/>
<path d="M0.631454 12.1111H9.36479V12.7778H0.631454V12.1111Z" fill="currentColor"/>
</svg>