<svg width="17" height="16" viewBox="0 0 17 16" fill="none" xmlns="http://www.w3.org/2000/svg">
<path d="M10.5 10L8.5 8" stroke="currentColor" stroke-width="1.2" stroke-linecap="round" stroke-linejoin="round"/>
<path d="M8.5 8L6.5 10" stroke="currentColor" stroke-width="1.2" stroke-linecap="round" stroke-linejoin="round"/>
<path d="M8.49935 13.3333V8" stroke="currentColor" stroke-width="1.2" stroke-linecap="round" stroke-linejoin="round"/>
<path d="M5.83398 12.667H4.50065C3.02789 12.667 1.83398 11.4731 1.83398 10.0003C1.83398 8.52757 3.02789 7.33366 4.50065 7.33366L4.49398 7.28675C4.32806 6.12525 4.67432 4.9489 5.44307 4.06253C6.21181 3.17616 7.32736 2.667 8.50065 2.66699C9.67395 2.667 10.7895 3.17616 11.5582 4.06253C12.327 4.9489 12.6732 6.12525 12.5073 7.28675L12.5007 7.33366C13.9734 7.33366 15.1673 8.52757 15.1673 10.0003C15.1673 11.4731 13.9734 12.667 12.5007 12.667H11.1673" stroke="currentColor" stroke-width="1.2" stroke-linecap="round" stroke-linejoin="round"/>
</svg>
