<svg width="17" height="16" viewBox="0 0 17 16" fill="none" xmlns="http://www.w3.org/2000/svg">
<path d="M8.24219 8.00033H14.9089" stroke="currentColor" stroke-width="1.2" stroke-linecap="round" stroke-linejoin="round"/>
<path d="M5.18599 7.05749C5.70666 7.57816 5.70666 8.42216 5.18599 8.94283C4.66532 9.46349 3.82132 9.46349 3.30066 8.94283C2.77999 8.42216 2.77999 7.57816 3.30066 7.05749C3.82132 6.53683 4.66532 6.53683 5.18599 7.05749" stroke="currentColor" stroke-width="1.2" stroke-linecap="round" stroke-linejoin="round"/>
<path d="M8.24219 3.33333H14.9089" stroke="currentColor" stroke-width="1.2" stroke-linecap="round" stroke-linejoin="round"/>
<path d="M2.92188 3.00533L4.02388 3.99733L6.24188 2" stroke="currentColor" stroke-width="1.2" stroke-linecap="round" stroke-linejoin="round"/>
<path d="M8.24219 12.6663H14.9089" stroke="currentColor" stroke-width="1.2" stroke-linecap="round" stroke-linejoin="round"/>
<path d="M5.18599 11.7245C5.70666 12.2452 5.70666 13.0892 5.18599 13.6098C4.66532 14.1305 3.82132 14.1305 3.30066 13.6098C2.77999 13.0892 2.77999 12.2452 3.30066 11.7245C3.82132 11.2038 4.66532 11.2038 5.18599 11.7245" stroke="currentColor" stroke-width="1.2" stroke-linecap="round" stroke-linejoin="round"/>
</svg>
