<svg width="17" height="16" viewBox="0 0 17 16" fill="none" xmlns="http://www.w3.org/2000/svg">
<path d="M10.751 2.66699H12.0843C12.4379 2.66699 12.7771 2.80747 13.0271 3.05752C13.2772 3.30756 13.4176 3.6467 13.4176 4.00033V13.3337C13.4176 13.6873 13.2772 14.0264 13.0271 14.2765C12.7771 14.5265 12.4379 14.667 12.0843 14.667H4.08431C3.73069 14.667 3.39155 14.5265 3.1415 14.2765C2.89145 14.0264 2.75098 13.6873 2.75098 13.3337V4.00033C2.75098 3.6467 2.89145 3.30756 3.1415 3.05752C3.39155 2.80747 3.73069 2.66699 4.08431 2.66699H5.41764" stroke="currentColor" stroke-width="1.5" stroke-linecap="round" stroke-linejoin="round"/>
<path d="M10.0837 1.33301H6.08366C5.71547 1.33301 5.41699 1.63148 5.41699 1.99967V3.33301C5.41699 3.7012 5.71547 3.99967 6.08366 3.99967H10.0837C10.4518 3.99967 10.7503 3.7012 10.7503 3.33301V1.99967C10.7503 1.63148 10.4518 1.33301 10.0837 1.33301Z" stroke="currentColor" stroke-width="1.5" stroke-linecap="round" stroke-linejoin="round"/>
</svg>
