<svg width="16" height="16" viewBox="0 0 16 16" fill="none" xmlns="http://www.w3.org/2000/svg">
<path d="M7.87464 5.19954H4.66797" stroke="currentColor" stroke-linecap="round" stroke-linejoin="round"/>
<path d="M6.27474 4.66628V5.19961" stroke="currentColor" stroke-linecap="round" stroke-linejoin="round"/>
<path d="M7.07397 5.20117C7.07397 6.57984 5.99664 7.69651 4.66797 7.69651" stroke="currentColor" stroke-linecap="round" stroke-linejoin="round"/>
<path d="M7.87664 7.6963C7.29997 7.6963 6.78397 7.38896 6.41797 6.9043" stroke="currentColor" stroke-linecap="round" stroke-linejoin="round"/>
<path fill-rule="evenodd" clip-rule="evenodd" d="M12.6667 14H3.33333C2.59667 14 2 13.4033 2 12.6667V3.33333C2 2.59667 2.59667 2 3.33333 2H12.6667C13.4033 2 14 2.59667 14 3.33333V12.6667C14 13.4033 13.4033 14 12.6667 14Z" stroke="currentColor" stroke-linecap="round" stroke-linejoin="round"/>
<path d="M9.81935 8.30371L8.30469 11.3337" stroke="currentColor" stroke-linecap="round" stroke-linejoin="round"/>
<path d="M11.3317 11.3337L9.81641 8.30371" stroke="currentColor" stroke-linecap="round" stroke-linejoin="round"/>
<path d="M8.57031 10.7992H11.0656" stroke="currentColor" stroke-linecap="round" stroke-linejoin="round"/>
</svg>
