<svg width="24" height="24" viewBox="0 0 24 24" fill="none" xmlns="http://www.w3.org/2000/svg">
<path d="M13 21H17C18.6569 21 20 19.6569 20 18V8.50931C20 7.71366 19.6839 6.95061 19.1213 6.388L16.612 3.87868C16.0494 3.31607 15.2863 3 14.4907 3H7C5.34315 3 4 4.34315 4 6V13" stroke="#646A8C" stroke-width="1.5" stroke-linecap="round" stroke-linejoin="round"/>
<path d="M20 8.5H16.5C15.3954 8.5 14.5 7.60457 14.5 6.5V3" stroke="#646A8C" stroke-width="1.5" stroke-linecap="round" stroke-linejoin="round"/>
<circle cx="7.32318" cy="18.6767" r="4.32318" fill="#E1F8C6"/>
<path fill-rule="evenodd" clip-rule="evenodd" d="M10.3545 16.8447C10.6474 17.1376 10.6474 17.6124 10.3545 17.9053L7.35455 20.9053C7.06166 21.1982 6.58678 21.1982 6.29389 20.9053L4.29389 18.9053C4.001 18.6124 4.001 18.1376 4.29389 17.8447C4.58678 17.5518 5.06166 17.5518 5.35455 17.8447L6.82422 19.3143L9.29389 16.8447C9.58678 16.5518 10.0617 16.5518 10.3545 16.8447Z" fill="#7EBF2F"/>
</svg>
