<svg width="24" height="24" viewBox="0 0 24 24" fill="none" xmlns="http://www.w3.org/2000/svg">
<rect x="7.99805" y="2.99634" width="8.00333" height="4.00167" rx="2" stroke="currentColor" stroke-width="1.5" stroke-linecap="round" stroke-linejoin="round"/>
<path d="M7.5 5V5C5.567 5 4 6.567 4 8.5V14.6C4 16.8402 4 17.9603 4.43597 18.816C4.81947 19.5686 5.43139 20.1805 6.18404 20.564C7.03968 21 8.15979 21 10.4 21H13.6C15.8402 21 16.9603 21 17.816 20.564C18.5686 20.1805 19.1805 19.5686 19.564 18.816C20 17.9603 20 16.8402 20 14.6V8.5C20 6.567 18.433 5 16.5 5V5" stroke="currentColor" stroke-width="1.5"/>
</svg>
