<svg width="24" height="24" viewBox="0 0 24 24" fill="none" xmlns="http://www.w3.org/2000/svg">
<path d="M11 12H21" stroke="white" stroke-width="1.5" stroke-linecap="round" stroke-linejoin="round"/>
<path d="M6.41375 10.5857C7.19475 11.3668 7.19475 12.6327 6.41375 13.4137C5.63275 14.1947 4.36675 14.1947 3.58575 13.4137C2.80475 12.6327 2.80475 11.3668 3.58575 10.5857C4.36675 9.80475 5.63275 9.80475 6.41375 10.5857" stroke="white" stroke-width="1.5" stroke-linecap="round" stroke-linejoin="round"/>
<path d="M6.41375 3.58575C7.19475 4.36675 7.19475 5.63275 6.41375 6.41375C5.63275 7.19475 4.36675 7.19475 3.58575 6.41375C2.80475 5.63275 2.80475 4.36675 3.58575 3.58575C4.36675 2.80475 5.63275 2.80475 6.41375 3.58575" stroke="white" stroke-width="1.5" stroke-linecap="round" stroke-linejoin="round"/>
<path d="M11 5H21" stroke="white" stroke-width="1.5" stroke-linecap="round" stroke-linejoin="round"/>
<path d="M11 19H21" stroke="white" stroke-width="1.5" stroke-linecap="round" stroke-linejoin="round"/>
<path d="M6.41375 17.5862C7.19475 18.3672 7.19475 19.6332 6.41375 20.4142C5.63275 21.1952 4.36675 21.1952 3.58575 20.4142C2.80475 19.6332 2.80475 18.3672 3.58575 17.5862C4.36675 16.8052 5.63275 16.8052 6.41375 17.5862" stroke="white" stroke-width="1.5" stroke-linecap="round" stroke-linejoin="round"/>
</svg>
